PathFileType	4	(X/Y/Z)	SUBJ11_2_walk_RCNL2025.trc
DataRate	CameraRate	NumFrames	NumMarkers	Units	OrigDataRate	OrigDataStartFrame	OrigNumFrames
100	100	11	25	mm	100	120	478
Frame#	Time	R_Shoulder			L_Shoulder			C7			J_Notch			R_Elbow			L_Elbow			R_Wrist			L_Wrist			R_Asis			L_Asis			Sacral			Thoracic			Sternum			R_Thigh_Lateral			R_Knee_Lateral			R_Shank_Lateral			R_Ankle_Lateral			R_Heel			R_Toe			L_Thigh_Lateral			L_Knee_Lateral			L_Shank_Lateral			L_Ankle_Lateral			L_Heel			L_Toe		
		X1	Y1	Z1	X2	Y2	Z2	X3	Y3	Z3	X4	Y4	Z4	X5	Y5	Z5	X6	Y6	Z6	X7	Y7	Z7	X8	Y8	Z8	X9	Y9	Z9	X10	Y10	Z10	X11	Y11	Z11	X12	Y12	Z12	X13	Y13	Z13	X14	Y14	Z14	X15	Y15	Z15	X16	Y16	Z16	X17	Y17	Z17	X18	Y18	Z18	X19	Y19	Z19	X20	Y20	Z20	X21	Y21	Z21	X22	Y22	Z22	X23	Y23	Z23	X24	Y24	Z24	X25	Y25	Z25
120	1.19000000	-1006.291992	1431.356323	84.944153	-992.932556	1422.183960	-310.701508	-1036.662964	1477.637085	-109.968002	-893.261719	1363.215332	-103.276245	-1022.847778	1101.214844	202.833252	-1117.455688	1096.823730	-376.097412	-867.372009	896.858704	185.451950	-1144.156372	834.478821	-357.936310	-963.075745	950.178467	48.436428	-932.332275	950.844360	-245.434464	-1122.274414	971.530212	-122.215179	-1130.673340	1298.615234	-116.543045	-848.799561	1164.323120	-93.981560	-1083.464111	608.385559	68.825806	-1106.189575	460.873077	-8.109464	-1167.672363	258.555634	14.703013	-1228.059204	71.745064	-65.052689	-1285.285400	64.653770	-118.484459	-1093.001953	51.258114	-83.866798	-934.693054	606.793640	-329.821289	-853.871887	476.896881	-251.473312	-789.251587	278.248566	-297.978973	-718.954956	91.744774	-238.473740	-764.458557	62.422874	-185.137238	-584.474976	117.078445	-212.257309
121	1.20000000	-994.323120	1428.750977	84.919388	-981.914978	1419.471680	-310.868866	-1025.079468	1475.188354	-110.051888	-881.828247	1360.416992	-103.639633	-1011.730774	1098.840942	203.304474	-1106.792969	1094.293701	-376.343414	-852.728058	895.834503	185.908348	-1133.973877	831.966492	-358.370468	-952.638428	948.207947	48.243511	-921.149780	947.965942	-245.682434	-1111.397827	968.961670	-123.246727	-1119.443726	1296.429077	-116.560654	-837.845154	1161.497192	-94.264099	-1075.109375	607.055969	69.257072	-1099.245728	459.614990	-7.519502	-1163.986450	258.117828	15.219456	-1227.630981	72.448013	-64.658257	-1285.091797	66.147522	-117.899605	-1093.011353	51.273434	-83.719307	-927.479553	601.223206	-328.249268	-841.932190	474.622345	-249.472946	-772.927185	277.175201	-295.637146	-698.052002	92.226250	-235.686646	-742.971313	62.284828	-182.164139	-563.636536	120.299706	-209.869247
122	1.21000000	-982.254456	1426.156738	84.886353	-970.933105	1416.783569	-311.082336	-1013.432678	1472.779297	-110.167694	-870.408752	1357.656372	-104.023369	-1000.611633	1096.406006	203.618729	-1095.852661	1091.644653	-376.608765	-838.141052	894.505981	186.649727	-1123.224487	829.311676	-358.891815	-942.077942	946.217041	48.039085	-909.923340	945.140808	-245.968018	-1100.422974	966.504150	-124.334641	-1108.091675	1294.256470	-116.555260	-826.695801	1158.755493	-94.601295	-1066.653564	605.790710	69.701065	-1092.194702	458.411774	-6.867232	-1160.248657	257.820343	15.822930	-1227.171387	73.327644	-64.157509	-1284.862427	67.869156	-117.193611	-1092.997437	51.287186	-83.523651	-919.059631	596.276611	-326.750336	-829.502441	472.579071	-247.594101	-757.763428	275.846649	-293.069336	-679.884644	92.144119	-232.441467	-724.380432	61.937428	-178.702667	-545.443542	121.917099	-206.870514
123	1.22000000	-970.081238	1423.624268	84.831093	-959.970703	1414.157715	-311.342834	-1001.719727	1470.445435	-110.322067	-858.989197	1354.975342	-104.437965	-989.467224	1093.960693	203.752441	-1084.621094	1088.921021	-376.887177	-824.355286	892.692688	187.405907	-1111.906616	826.557343	-359.485031	-931.343933	944.231140	47.805954	-898.636292	942.414490	-246.325592	-1089.314575	964.192200	-125.440628	-1096.609619	1292.123169	-116.525696	-815.354248	1156.132568	-94.999352	-1058.103027	604.634277	70.159065	-1085.065063	457.307129	-6.143122	-1156.479858	257.710358	16.520809	-1226.671875	74.419678	-63.543816	-1284.580322	69.850586	-116.368721	-1092.948120	51.296173	-83.271530	-909.111206	592.253723	-325.381195	-816.594360	470.763275	-245.832306	-743.733093	274.220673	-290.280823	-664.432434	91.389885	-228.780975	-708.716675	61.215096	-174.851334	-529.895935	121.773018	-203.136795
124	1.23000000	-957.794922	1421.206543	84.735107	-949.010010	1411.635376	-311.652130	-989.938965	1468.223145	-110.520485	-847.551025	1352.417725	-104.888672	-978.280396	1091.561157	203.685349	-1073.082520	1086.169556	-377.171356	-811.892853	890.281372	187.961510	-1100.018311	823.750549	-360.130890	-920.389038	942.277161	47.523758	-887.262939	939.834106	-246.784592	-1078.036011	962.057556	-126.528961	-1084.989868	1290.055054	-116.473846	-803.823547	1153.664307	-95.463058	-1049.443359	603.616272	70.632866	-1077.854614	456.333191	-5.337803	-1152.677124	257.826508	17.314476	-1226.119141	75.763809	-62.816483	-1284.222046	72.130547	-115.435188	-1092.851196	51.298115	-82.960915	-897.499817	589.346436	-324.181488	-803.251648	469.174988	-244.179764	-730.738586	272.323761	-287.302399	-651.559326	89.947922	-224.789749	-695.894897	60.065041	-170.764542	-516.900391	119.844971	-198.613953
125	1.24000000	-945.386841	1418.956421	84.577164	-938.032043	1409.260986	-312.013641	-978.090393	1466.149292	-110.768402	-836.072937	1350.028320	-105.378876	-967.042175	1089.265747	203.401199	-1061.221313	1083.438110	-377.455292	-800.835175	887.292511	188.231300	-1087.557739	820.940948	-360.807739	-909.176208	940.381958	47.174591	-875.771545	937.447449	-247.357849	-1066.556763	960.130493	-127.570061	-1073.224731	1288.079590	-116.407478	-792.104126	1151.388306	-95.993668	-1040.633789	602.746216	71.120766	-1070.526855	455.507721	-4.442207	-1148.812866	258.198792	18.200010	-1225.492920	77.402466	-61.983490	-1283.754761	74.755959	-114.412659	-1092.693848	51.290184	-82.597641	-884.320007	587.593811	-323.155548	-789.542358	467.820923	-242.634521	-718.625671	270.246857	-284.197205	-641.022705	87.901764	-220.605240	-685.713196	58.553722	-166.650543	-506.263275	116.239059	-193.340485
126	1.25000000	-932.852905	1416.925049	84.336624	-927.015625	1407.079346	-312.432831	-966.173645	1464.261475	-111.072433	-824.531128	1347.853027	-105.913681	-955.751770	1087.132202	202.887634	-1049.024048	1080.775757	-377.735046	-790.981110	883.833984	188.224152	-1074.523621	818.179993	-361.493027	-897.686768	938.573486	46.750633	-864.128784	935.302002	-248.036346	-1054.860107	958.441589	-128.542160	-1061.308350	1286.230835	-116.340988	-780.192017	1149.344971	-96.588394	-1031.608276	602.016968	71.618561	-1063.008911	454.836212	-3.447534	-1144.836426	258.851990	19.170458	-1224.761841	79.380928	-61.060837	-1283.133423	77.783745	-113.329147	-1092.461182	51.268044	-82.194603	-869.836609	586.897278	-322.289459	-775.553162	466.717529	-241.208725	-707.200867	268.135010	-281.066071	-632.490479	85.427521	-216.428024	-677.866150	56.856625	-162.762939	-497.695221	111.167267	-187.460983
127	1.26000000	-920.196045	1415.161743	83.996445	-915.936401	1405.133057	-312.917236	-954.186523	1462.600830	-111.441200	-812.899475	1345.936646	-106.502235	-944.417053	1085.215332	202.137039	-1036.479980	1078.232300	-378.007812	-782.085815	880.032684	187.981422	-1060.915161	815.520538	-362.164688	-885.924622	936.882080	46.259018	-852.307068	933.445740	-248.790283	-1042.947021	957.023743	-129.430634	-1049.238037	1284.552246	-116.294769	-768.080261	1147.578247	-97.241646	-1022.283447	601.414185	72.123222	-1055.194336	454.317139	-2.345539	-1140.676025	259.810150	20.218136	-1223.881104	81.748489	-60.069351	-1282.296509	81.282257	-112.217278	-1092.135864	51.225338	-81.768959	-854.370056	587.075378	-321.588409	-761.382080	465.896362	-239.935165	-696.248962	266.171631	-278.047913	-625.566284	82.764374	-212.508698	-671.968140	55.228321	-159.373535	-490.831635	104.921005	-181.229675
128	1.27000000	-907.427307	1413.713013	83.545479	-904.766846	1403.461792	-313.474792	-942.123596	1461.212891	-111.886055	-801.152588	1344.323364	-107.160622	-933.053589	1083.566895	201.147202	-1023.583130	1075.859375	-378.271362	-773.951324	876.008789	187.548042	-1046.731628	813.015991	-362.803146	-873.913879	935.340515	45.718842	-840.290894	931.930481	-249.573257	-1030.836914	955.913147	-130.225693	-1037.014648	1283.097534	-116.292717	-755.761047	1146.135498	-97.947472	-1012.567871	600.924744	72.636139	-1046.950439	453.946320	-1.128000	-1136.238403	261.100128	21.336338	-1222.786743	84.556625	-59.032524	-1281.160278	85.331078	-111.109268	-1091.698853	51.154106	-81.339218	-838.213684	587.925781	-321.093414	-747.129089	465.406342	-238.870483	-685.549316	264.553619	-275.312592	-619.831055	80.165367	-209.108139	-667.586609	53.950325	-156.724319	-485.269745	97.850319	-175.004715
129	1.28000000	-894.565796	1412.623535	82.981094	-893.478210	1402.102051	-314.110199	-929.977112	1460.146484	-112.420685	-789.268982	1343.057617	-107.907547	-921.682129	1082.235474	199.920227	-1010.332092	1073.708740	-378.524597	-766.435394	871.873077	186.961662	-1031.972839	810.719849	-363.392700	-861.692627	933.983398	45.152573	-828.082764	930.812622	-250.331161	-1018.561707	955.149109	-130.919815	-1024.643555	1281.926392	-116.357468	-743.227783	1145.068604	-98.701851	-1002.373413	600.542542	73.164986	-1038.127808	453.719299	0.215213	-1131.408691	262.753113	22.520557	-1221.390015	87.853638	-57.977047	-1279.614380	90.018585	-110.033714	-1091.128418	51.045837	-80.923828	-821.627625	589.268921	-320.863220	-732.887573	465.305420	-238.092041	-674.898315	263.448456	-273.042877	-614.904907	77.837875	-206.438583	-664.288940	53.256824	-154.966324	-480.625366	90.348114	-169.226471
130	1.29000000	-881.635742	1411.934692	82.310539	-882.042664	1401.088745	-314.821503	-917.739136	1459.447876	-113.057915	-777.231567	1342.183594	-108.754395	-910.326721	1081.265137	198.460434	-996.729431	1071.831787	-378.767609	-759.448730	867.728882	186.248108	-1016.639038	808.686493	-363.922104	-849.308228	932.849915	44.580040	-815.704102	930.146118	-251.016586	-1006.154480	954.769043	-131.506577	-1012.136658	1281.093506	-116.504898	-730.480042	1144.431274	-99.502449	-991.621033	600.270630	73.724785	-1028.569092	453.632477	1.699007	-1126.053833	264.802887	23.769684	-1219.574219	91.680580	-56.933243	-1277.516846	95.435623	-109.016502	-1090.401367	50.893364	-80.541252	-804.875671	590.966064	-320.947876	-718.740173	465.634491	-237.682999	-664.149536	262.931885	-271.402344	-610.520996	75.892487	-204.606598	-661.701721	53.252037	-154.108475	-476.605377	82.828850	-164.356796
